<svg xmlns="http://www.w3.org/2000/svg" xmlns:xlink="http://www.w3.org/1999/xlink" width="292" height="198" version="1.2"><defs><linearGradient id="linearGradient8512" x1="42.045" x2="42.045" y1="5.584" y2="42.356" gradientTransform="matrix(7.8108106,0,0,5.2702704,-41.45949,-27.48636)" gradientUnits="userSpaceOnUse"><stop offset="0" stop-color="#FFF"/><stop offset=".003" stop-color="#FFF" stop-opacity=".235"/><stop offset=".997" stop-color="#FFF" stop-opacity=".157"/><stop offset="1" stop-color="#FFF" stop-opacity=".392"/></linearGradient><radialGradient id="radialGradient4848-0" cx="2.055" cy="8.45" r="20" gradientTransform="matrix(0,18.966214,-21.944795,-5.738777e-7,331.42921,-111.38815)" gradientUnits="userSpaceOnUse"><stop offset="0" stop-color="#90dbec"/><stop offset=".262" stop-color="#55c1ec"/><stop offset=".705" stop-color="#3689e6"/><stop offset="1" stop-color="#2b63a0"/></radialGradient></defs><metadata/><flowRoot fill="#000" font-family="Bitstream Vera Sans" font-size="6" font-style="normal" font-weight="normal" transform="translate(-1466.7708,-1192.0512)" xml:space="preserve"><flowRegion><rect width="384" height="26" x="-453" y="4.273"/></flowRegion><flowPara/></flowRoot><flowRoot fill="#000" font-family="Bitstream Vera Sans" font-size="6" font-style="normal" font-weight="normal" transform="translate(-1466.7708,-1192.0512)" xml:space="preserve"><flowRegion><rect width="425" height="207" x="82" y="184.27"/></flowRegion><flowPara/></flowRoot><flowRoot fill="#000" font-family="Bitstream Vera Sans" font-size="6" font-style="normal" font-weight="normal" transform="translate(-1466.7708,-1192.0512)" xml:space="preserve"><flowRegion><rect width="436" height="229" x="84" y="177.27"/></flowRegion><flowPara/></flowRoot><flowRoot fill="#000" font-family="Bitstream Vera Sans" font-size="6" font-style="normal" font-weight="normal" transform="translate(-1466.7708,-1192.0512)" xml:space="preserve"><flowRegion><rect width="204" height="127" x="87" y="180.27"/></flowRegion><flowPara/></flowRoot><flowRoot fill="#000" font-family="Bitstream Vera Sans" font-size="6" font-style="normal" font-weight="normal" transform="translate(-1466.7708,-1192.0512)" xml:space="preserve"><flowRegion><rect width="146" height="49" x="92" y="37.273"/></flowRegion><flowPara/></flowRoot><flowRoot fill="#000" font-family="Ubuntu" font-size="12" font-stretch="normal" font-style="normal" font-variant="normal" font-weight="normal" letter-spacing="0" line-height="125%" transform="translate(-254,-1481)" word-spacing="0" xml:space="preserve"><flowRegion><rect width="138" height="245" x="66" y="1129"/></flowRegion><flowPara/></flowRoot><flowRoot fill="#000" font-family="Ubuntu" font-size="12" font-stretch="normal" font-style="normal" font-variant="normal" font-weight="normal" letter-spacing="0" line-height="125%" transform="translate(386.12341,-863.30726)" word-spacing="0" xml:space="preserve"><flowRegion><rect width="40" height="23" x="531" y="299"/></flowRegion><flowPara/></flowRoot><rect width="291" height="197" x=".5" y=".5" fill="url(#radialGradient4848-0)" fill-rule="nonzero" color="#000" enable-background="accumulate" rx="2" ry="2"/><rect width="289" height="195" x="1.5" y="1.5" fill="none" stroke="url(#linearGradient8512)" stroke-dasharray="none" stroke-dashoffset="0" stroke-linecap="round" stroke-linejoin="round" stroke-miterlimit="4" stroke-width="1" opacity=".5" rx="1" ry="1"/><rect width="291" height="197" x=".5" y=".5" fill-opacity="0" stroke="#00537d" stroke-dasharray="none" stroke-dashoffset="0" stroke-linecap="round" stroke-linejoin="round" stroke-miterlimit="4" stroke-width="1" color="#000" enable-background="accumulate" opacity=".5" rx="2" ry="2"/><path fill="#000" fill-rule="nonzero" d="m2.5,0.5c-1.108,0-2,0.892-2,2v29.5c17.277-0.264,31.236-14.223,31.5-31.5h-29.5zm257.5,0c0.26417,17.277,14.223,31.236,31.5,31.5v-29.5c0-1.108-0.892-2-2-2h-29.5zm-259.5,165.5v29.5c0,1.108,0.892,2,2,2h29.5c-0.264-17.28-14.223-31.24-31.5-31.5zm291,0c-17.277,0.26417-31.236,14.223-31.5,31.5h29.5c1.108,0,2-0.892,2-2v-29.5z" color="#000" enable-background="accumulate" filter="url(#filter10990-2)" opacity=".25"/></svg>